<svg xmlns="http://www.w3.org/2000/svg" width="878" height="1234" viewBox="0 0 878 1234" version="1.1"><path d="M 421.217 103.449 C 418.311 104.153, 412.686 106.344, 408.717 108.318 C 395.580 114.852, 386.470 124.120, 380.030 137.500 C 374.928 148.101, 374 153.265, 374 171.049 L 374 186 304.250 186.022 C 238.576 186.043, 234.266 186.152, 230.500 187.890 C 225.659 190.124, 222.612 193.290, 220.548 198.232 C 219.285 201.253, 219 206.734, 219 227.968 L 219 254 204.660 254 C 193.661 254, 188.523 254.459, 182.609 255.972 C 155.846 262.817, 137.011 285.354, 135.298 312.585 C 134.065 332.165, 141.370 349.693, 156.748 364.061 C 165.018 371.787, 172.310 376.268, 182.165 379.681 C 188.285 381.800, 191.943 382.308, 204.250 382.746 L 219 383.272 219 424.430 L 219 465.588 222.250 471.003 C 225.931 477.137, 232.272 482.426, 237.775 483.954 C 240.110 484.603, 260.064 484.991, 291.250 484.994 L 341 485 341 499 L 341 513 216.250 513.006 C 135.764 513.009, 90.216 513.368, 87.882 514.016 C 82.338 515.556, 77.756 519.121, 75 524.039 L 72.500 528.500 72.500 692 C 72.500 781.925, 72.848 857.137, 73.274 859.138 C 74.388 864.370, 80.284 871.549, 86.304 875.001 L 91.500 877.981 133.290 877.991 C 172.411 877.999, 175.317 877.879, 178.790 876.097 C 183.089 873.892, 186.101 870.817, 188.383 866.300 C 189.840 863.416, 190 853.213, 190 763.050 L 190 663 204.500 663 L 219 663 219 886.532 C 219 1136.161, 218.299 1113.556, 226.297 1121.867 C 234.630 1130.526, 228.173 1129.953, 317.790 1129.978 C 393.785 1129.999, 397.234 1129.921, 400.790 1128.097 C 405.089 1125.892, 408.101 1122.817, 410.383 1118.300 C 411.845 1115.406, 412 1103.753, 412 996.550 L 412 878 438 878 L 464 878 464 994.540 C 464 1109.237, 464.032 1111.142, 466.007 1115.013 C 468.570 1120.038, 473.962 1125.430, 478.987 1127.993 C 482.827 1129.952, 484.804 1130, 562.500 1130 C 638.756 1130, 642.235 1129.921, 645.790 1128.097 C 650.481 1125.692, 653.482 1122.483, 655.452 1117.768 C 656.834 1114.462, 657 1089.834, 657 888.532 L 657 663 671.500 663 L 686 663 686.022 760.750 C 686.047 870.599, 685.473 862.286, 693.593 870.407 C 701.266 878.080, 700.376 877.953, 746.849 877.978 C 792.997 878.003, 791.923 878.148, 798.385 870.995 C 800.746 868.382, 802.164 865.527, 802.927 861.848 C 803.720 858.027, 803.960 810.252, 803.768 694.500 L 803.500 532.500 801.335 528.500 C 798.767 523.757, 792.876 517.952, 788 515.360 C 784.650 513.579, 779.171 513.489, 659.750 513.235 L 535 512.970 535 498.985 L 535 485 586.750 484.994 C 619.776 484.991, 639.867 484.609, 642.277 483.940 C 647.007 482.627, 652.523 477.855, 655.059 472.885 C 656.891 469.293, 657 466.671, 657 426.040 L 657 383 670.042 383 C 690.813 383, 702.564 379.769, 715.588 370.475 C 723.415 364.889, 730.245 356.677, 734.611 347.602 C 750.350 314.885, 735.348 276.161, 700.642 259.920 C 691.783 255.774, 682.401 254.038, 668.750 254.017 L 657 254 657 229.968 C 657 202.764, 656.729 201.434, 649.703 194.133 C 641.443 185.550, 646.339 186.047, 569.750 186.022 L 502 186 502 173.049 C 502 156.763, 500.986 151.828, 495.210 140.009 C 491.354 132.118, 489.131 129.077, 482.027 121.973 C 474.923 114.869, 471.882 112.646, 463.991 108.790 C 458.771 106.239, 452.115 103.668, 449.201 103.076 C 442.210 101.657, 427.828 101.848, 421.217 103.449 M 435.500 146.914 C 431.210 147.989, 426.835 150.441, 424.367 153.155 C 419.849 158.122, 418.713 162.011, 418.210 174.247 L 417.725 186 437.863 186 L 458 186 457.956 175.250 C 457.887 158.147, 456.116 152.683, 449.395 148.847 C 445.807 146.799, 439.474 145.918, 435.500 146.914 M 264 335 L 264 440 437.991 440 L 611.982 440 612.241 335.417 C 612.383 277.896, 612.312 230.646, 612.083 230.417 C 611.854 230.187, 533.442 230, 437.833 230 L 264 230 264 335 M 341.202 258.022 C 329.963 260.966, 322.520 265.382, 313.500 274.454 C 301.357 286.667, 295.985 299.475, 296.015 316.144 C 296.033 326.705, 298.090 335.476, 302.528 343.922 C 312.197 362.322, 329.132 375.468, 348.256 379.418 C 357.854 381.400, 362.102 381.403, 371.792 379.433 C 389.984 375.735, 405.934 363.390, 413.798 346.923 C 416.010 342.290, 418.310 336.115, 418.910 333.201 C 420.477 325.584, 420.252 312.762, 418.429 305.724 C 413.903 288.261, 399.610 270.917, 382.669 262.332 C 370.559 256.195, 354.532 254.530, 341.202 258.022 M 501.202 258.022 C 489.963 260.966, 482.520 265.382, 473.500 274.454 C 461.443 286.581, 456 299.454, 456 315.845 C 456 326.631, 457.428 332.939, 462.034 342.500 C 471.204 361.532, 488.568 375.419, 508.208 379.427 C 517.875 381.400, 522.112 381.401, 531.792 379.433 C 549.984 375.735, 565.934 363.390, 573.798 346.923 C 578.576 336.917, 580 330.699, 580 319.845 C 580 279.962, 539.310 248.038, 501.202 258.022 M 192.491 300.865 C 188.188 302.820, 182.452 308.682, 180.933 312.676 C 179.240 317.129, 179.831 325.927, 182.094 329.954 C 185.759 336.474, 188.572 337.453, 204.750 337.844 L 219 338.188 219 318.594 L 219 299 207.750 299.022 C 199.038 299.039, 195.596 299.455, 192.491 300.865 M 657 318.500 L 657 338 667.250 337.994 C 679.557 337.988, 683.883 336.920, 688.684 332.704 C 698.957 323.685, 698.398 305.808, 687.691 300.947 C 684.257 299.388, 681.107 299.040, 670.250 299.022 L 657 299 657 318.500 M 351 303.249 C 338.158 310.116, 336.935 329.556, 349.039 334.399 C 354.682 336.657, 358.812 336.396, 364.818 333.403 C 371.637 330.005, 375.286 324.149, 375.286 316.603 C 375.286 306.778, 370.825 301.889, 361.263 301.236 C 356.595 300.917, 354.645 301.300, 351 303.249 M 513.145 302.016 C 502.667 306.453, 497.490 319.313, 502.378 328.764 C 504.404 332.681, 510.543 336, 515.764 336 C 521.881 336, 529.565 331.598, 532.657 326.322 C 537.243 318.496, 535.931 308.219, 529.763 303.655 C 526.646 301.348, 516.975 300.394, 513.145 302.016 M 386 499 L 386 513 438 513 L 490 513 490 499 L 490 485 438 485 L 386 485 386 499 M 117 696 L 117 834 131.500 834 L 146 834 146 696 L 146 558 131.500 558 L 117 558 117 696 M 190.235 588.250 L 190.500 618.500 204.750 618.777 L 219 619.055 219 588.527 L 219 558 204.485 558 L 189.971 558 190.235 588.250 M 263.757 695.583 C 263.616 771.254, 263.688 833.354, 263.917 833.583 C 264.461 834.128, 611.539 834.128, 612.083 833.583 C 612.312 833.354, 612.384 771.254, 612.243 695.583 L 611.986 558 438 558 L 264.014 558 263.757 695.583 M 657 588.527 L 657 619.055 671.250 618.777 L 685.500 618.500 685.765 588.250 L 686.029 558 671.515 558 L 657 558 657 588.527 M 730 696 L 730 834 744.500 834 L 759 834 759 696 L 759 558 744.500 558 L 730 558 730 696 M 352.500 635.878 C 343.399 638.227, 336.975 646.791, 337.028 656.500 C 337.085 667.095, 350.518 680.017, 361.446 679.990 C 367.619 679.975, 375.366 675.915, 378.628 670.985 C 382.500 665.134, 383.084 656.711, 380.028 650.782 C 374.280 639.631, 362.554 633.283, 352.500 635.878 M 416.500 635.491 C 415.950 635.675, 414.271 636.096, 412.768 636.427 C 406.049 637.908, 399.065 647.625, 399.022 655.554 C 398.992 661.118, 403.258 669.258, 408.422 673.490 C 416.630 680.216, 414.566 680.002, 471.218 679.978 C 519 679.958, 522.773 679.830, 526.500 678.104 C 536.986 673.249, 541.685 661.497, 537.136 651.500 C 534.543 645.801, 526.678 638.419, 521.216 636.558 C 517.305 635.225, 509.475 635.011, 467.072 635.079 C 439.807 635.122, 417.050 635.308, 416.500 635.491 M 347.907 714.327 C 338.977 719.041, 334.979 729.419, 338.520 738.691 C 340.763 744.565, 347.254 751.733, 352.500 754.129 C 356.210 755.823, 360.308 755.958, 408.934 755.978 C 460.435 756, 461.447 755.962, 465.774 753.867 C 474.326 749.727, 478.619 739.854, 475.975 730.409 C 474.405 724.803, 467.043 716.379, 461.521 713.871 C 457.792 712.177, 453.676 712.042, 404.907 712.022 L 352.315 712 347.907 714.327 M 505.500 713.662 C 495.290 719.044, 491.244 730.336, 495.873 740.527 C 498.329 745.933, 505.258 752.551, 510.597 754.590 C 516.756 756.942, 524.690 756.133, 530.016 752.608 C 534.752 749.474, 538.980 741.640, 538.980 736 C 538.980 728.194, 530.835 716.903, 522.782 713.549 C 518.028 711.568, 509.364 711.625, 505.500 713.662 M 264 945 L 264 1012 316 1012 L 368 1012 368 945 L 368 878 316 878 L 264 878 264 945 M 508 944.991 L 508 1012 560 1012 L 612 1012 612 946 C 612 909.700, 612.112 879.663, 612.250 879.250 C 612.388 878.837, 588.987 878.383, 560.250 878.241 L 508 877.982 508 944.991 M 263.803 1071.087 C 263.636 1078.834, 263.688 1085.359, 263.917 1085.587 C 264.146 1085.814, 287.658 1086, 316.167 1086 L 368 1086 368 1071.500 L 368 1057 316.053 1057 L 264.105 1057 263.803 1071.087 M 508 1071.500 L 508 1086 559.833 1086 C 588.342 1086, 611.854 1085.814, 612.083 1085.587 C 612.312 1085.359, 612.364 1078.834, 612.197 1071.087 L 611.895 1057 559.947 1057 L 508 1057 508 1071.500" stroke="none" fill="#dcab38" fill-rule="evenodd"/></svg>